# xmcd
#
# Track frame offsets:
#	150
#	12880
#	28266
#	42226
#	52201
#	66751
#	81021
#	91554
#	100119
#	113284
#	124861
#	135509
#	146995
#	161590
#	173251
#	185055
#	196356
#
# Disc length: 2793 seconds
#
# Revision: 0
# Processed by: cddbd v1.5.2PL0 Copyright (c) Steve Scherf et al.
# Submitted via: EZCDAudioConverter 3.1.0.1
#
DISCID=dd0ae711
DTITLE=Carl Mann - In Rockabilly Country
DYEAR=1980
DGENRE=Rockabilly
TTITLE0=Ain't Got No Home
TTITLE1=Sunny Side Of The Mountain
TTITLE2=When The Leaves Have Turned All Brown
TTITLE3=Gonna Drink A Little Beer
TTITLE4=It Couldn't Happen With Me
TTITLE5=Every Day Grows Sweeter With The Wine
TTITLE6=Island Of Love
TTITLE7=Knocking On The Backside
TTITLE8=Bull O' The Woods
TTITLE9=Blue Eyes Crying In The Rain
TTITLE10=Nobody Knows How The Singer Feels
TTITLE11=Judy
TTITLE12=I Want To Be The One That She Needs
TTITLE13=Feel Like I'm Catching The Blues
TTITLE14=Ramona
TTITLE15=It's Hard To Lie To You
TTITLE16=Rockin' The Boat Of Love
EXTD=
EXTT0=
EXTT1=
EXTT2=
EXTT3=
EXTT4=
EXTT5=
EXTT6=
EXTT7=
EXTT8=
EXTT9=
EXTT10=
EXTT11=
EXTT12=
EXTT13=
EXTT14=
EXTT15=
EXTT16=
PLAYORDER=
